<mxfile host="app.diagrams.net" modified="2023-04-03T01:53:56.198Z" agent="Mozilla/5.0 (Windows NT 10.0; Win64; x64) AppleWebKit/537.36 (KHTML, like Gecko) Chrome/111.0.0.0 Safari/537.36" etag="AqwD9rlwj_swW7WnA8Vc" version="21.1.2" type="github">
  <diagram id="lCf8sdsgXJB0X4HuRraz" name="Страница 1">
    <mxGraphModel dx="1428" dy="625" grid="1" gridSize="10" guides="1" tooltips="1" connect="1" arrows="1" fold="1" page="1" pageScale="1" pageWidth="1654" pageHeight="2336" math="0" shadow="0">
      <root>
        <mxCell id="0" />
        <mxCell id="1" parent="0" />
        <mxCell id="8cxv18cPqp-0XhQ9Wepb-1" value="" style="shape=umlActor;verticalLabelPosition=bottom;verticalAlign=top;html=1;" parent="1" vertex="1">
          <mxGeometry x="65" y="20" width="30" height="60" as="geometry" />
        </mxCell>
        <mxCell id="8cxv18cPqp-0XhQ9Wepb-2" value="Клиент" style="shape=umlLifeline;perimeter=lifelinePerimeter;whiteSpace=wrap;html=1;container=1;collapsible=0;recursiveResize=0;outlineConnect=0;" parent="1" vertex="1">
          <mxGeometry x="30" y="90" width="100" height="650" as="geometry" />
        </mxCell>
        <mxCell id="8cxv18cPqp-0XhQ9Wepb-3" value="" style="html=1;points=[];perimeter=orthogonalPerimeter;fontSize=14;" parent="8cxv18cPqp-0XhQ9Wepb-2" vertex="1">
          <mxGeometry x="45" y="70" width="10" height="60" as="geometry" />
        </mxCell>
        <mxCell id="8cxv18cPqp-0XhQ9Wepb-4" value="" style="html=1;points=[];perimeter=orthogonalPerimeter;" parent="8cxv18cPqp-0XhQ9Wepb-2" vertex="1">
          <mxGeometry x="45" y="250" width="10" height="100" as="geometry" />
        </mxCell>
        <mxCell id="8cxv18cPqp-0XhQ9Wepb-5" value="" style="html=1;points=[];perimeter=orthogonalPerimeter;fontSize=14;" parent="8cxv18cPqp-0XhQ9Wepb-2" vertex="1">
          <mxGeometry x="45" y="500" width="10" height="130" as="geometry" />
        </mxCell>
        <mxCell id="8cxv18cPqp-0XhQ9Wepb-6" value="" style="html=1;points=[];perimeter=orthogonalPerimeter;fontSize=14;" parent="8cxv18cPqp-0XhQ9Wepb-2" vertex="1">
          <mxGeometry x="45" y="150" width="10" height="70" as="geometry" />
        </mxCell>
        <mxCell id="8cxv18cPqp-0XhQ9Wepb-7" value="Меню" style="shape=umlLifeline;perimeter=lifelinePerimeter;whiteSpace=wrap;html=1;container=1;collapsible=0;recursiveResize=0;outlineConnect=0;fontSize=14;size=50;" parent="1" vertex="1">
          <mxGeometry x="220" y="90" width="100" height="640" as="geometry" />
        </mxCell>
        <mxCell id="8cxv18cPqp-0XhQ9Wepb-8" value="" style="html=1;points=[];perimeter=orthogonalPerimeter;fontSize=14;" parent="8cxv18cPqp-0XhQ9Wepb-7" vertex="1">
          <mxGeometry x="45" y="70" width="10" height="60" as="geometry" />
        </mxCell>
        <mxCell id="8cxv18cPqp-0XhQ9Wepb-9" value="" style="html=1;points=[];perimeter=orthogonalPerimeter;fontSize=14;" parent="8cxv18cPqp-0XhQ9Wepb-7" vertex="1">
          <mxGeometry x="45" y="150" width="10" height="70" as="geometry" />
        </mxCell>
        <mxCell id="8cxv18cPqp-0XhQ9Wepb-10" value="Кассиры" style="shape=umlLifeline;perimeter=lifelinePerimeter;whiteSpace=wrap;html=1;container=1;collapsible=0;recursiveResize=0;outlineConnect=0;fontSize=14;size=40;" parent="1" vertex="1">
          <mxGeometry x="390" y="90" width="100" height="660" as="geometry" />
        </mxCell>
        <mxCell id="8cxv18cPqp-0XhQ9Wepb-11" value="" style="html=1;points=[];perimeter=orthogonalPerimeter;fontSize=14;" parent="8cxv18cPqp-0XhQ9Wepb-10" vertex="1">
          <mxGeometry x="45" y="250" width="10" height="90" as="geometry" />
        </mxCell>
        <mxCell id="8cxv18cPqp-0XhQ9Wepb-12" value="Бариста" style="shape=umlLifeline;perimeter=lifelinePerimeter;whiteSpace=wrap;html=1;container=1;collapsible=0;recursiveResize=0;outlineConnect=0;fontSize=14;size=50;" parent="1" vertex="1">
          <mxGeometry x="940" y="90" width="100" height="660" as="geometry" />
        </mxCell>
        <mxCell id="8cxv18cPqp-0XhQ9Wepb-13" value="" style="html=1;points=[];perimeter=orthogonalPerimeter;fontSize=14;" parent="8cxv18cPqp-0XhQ9Wepb-12" vertex="1">
          <mxGeometry x="45" y="340" width="10" height="140" as="geometry" />
        </mxCell>
        <mxCell id="8cxv18cPqp-0XhQ9Wepb-14" value="" style="endArrow=classic;html=1;rounded=0;fontSize=14;startArrow=none;entryX=1.2;entryY=0.25;entryDx=0;entryDy=0;entryPerimeter=0;exitX=1.5;exitY=0.143;exitDx=0;exitDy=0;exitPerimeter=0;" parent="8cxv18cPqp-0XhQ9Wepb-12" source="8cxv18cPqp-0XhQ9Wepb-13" target="8cxv18cPqp-0XhQ9Wepb-15" edge="1">
          <mxGeometry width="50" height="50" relative="1" as="geometry">
            <mxPoint x="60" y="330" as="sourcePoint" />
            <mxPoint x="90" y="410" as="targetPoint" />
            <Array as="points">
              <mxPoint x="100" y="360" />
              <mxPoint x="100" y="440" />
            </Array>
          </mxGeometry>
        </mxCell>
        <mxCell id="8cxv18cPqp-0XhQ9Wepb-15" value="" style="html=1;points=[];perimeter=orthogonalPerimeter;" parent="8cxv18cPqp-0XhQ9Wepb-12" vertex="1">
          <mxGeometry x="55" y="430" width="15" height="40" as="geometry" />
        </mxCell>
        <mxCell id="8cxv18cPqp-0XhQ9Wepb-16" value="Повар" style="shape=umlLifeline;perimeter=lifelinePerimeter;whiteSpace=wrap;html=1;container=1;collapsible=0;recursiveResize=0;outlineConnect=0;fontSize=14;" parent="1" vertex="1">
          <mxGeometry x="1140" y="90" width="120" height="660" as="geometry" />
        </mxCell>
        <mxCell id="8cxv18cPqp-0XhQ9Wepb-17" value="" style="html=1;points=[];perimeter=orthogonalPerimeter;fontSize=14;" parent="8cxv18cPqp-0XhQ9Wepb-16" vertex="1">
          <mxGeometry x="55" y="320" width="10" height="235" as="geometry" />
        </mxCell>
        <mxCell id="8cxv18cPqp-0XhQ9Wepb-18" value="" style="html=1;points=[];perimeter=orthogonalPerimeter;" parent="8cxv18cPqp-0XhQ9Wepb-16" vertex="1">
          <mxGeometry x="65" y="440" width="15" height="40" as="geometry" />
        </mxCell>
        <mxCell id="8cxv18cPqp-0XhQ9Wepb-19" value="" style="endArrow=classic;html=1;rounded=0;fontSize=14;exitX=1.1;exitY=0.123;exitDx=0;exitDy=0;exitPerimeter=0;entryX=1.067;entryY=0.5;entryDx=0;entryDy=0;entryPerimeter=0;" parent="8cxv18cPqp-0XhQ9Wepb-16" source="8cxv18cPqp-0XhQ9Wepb-17" target="8cxv18cPqp-0XhQ9Wepb-18" edge="1">
          <mxGeometry width="50" height="50" relative="1" as="geometry">
            <mxPoint x="50" y="300" as="sourcePoint" />
            <mxPoint x="70" y="480" as="targetPoint" />
            <Array as="points">
              <mxPoint x="110" y="350" />
              <mxPoint x="110" y="460" />
            </Array>
          </mxGeometry>
        </mxCell>
        <mxCell id="8cxv18cPqp-0XhQ9Wepb-20" value="Официант" style="shape=umlLifeline;perimeter=lifelinePerimeter;whiteSpace=wrap;html=1;container=1;collapsible=0;recursiveResize=0;outlineConnect=0;fontSize=14;" parent="1" vertex="1">
          <mxGeometry x="1360" y="90" width="120" height="650" as="geometry" />
        </mxCell>
        <mxCell id="8cxv18cPqp-0XhQ9Wepb-21" value="" style="html=1;points=[];perimeter=orthogonalPerimeter;fontSize=14;" parent="8cxv18cPqp-0XhQ9Wepb-20" vertex="1">
          <mxGeometry x="55" y="560" width="10" height="60" as="geometry" />
        </mxCell>
        <mxCell id="8cxv18cPqp-0XhQ9Wepb-22" value="Просмотр блюд" style="html=1;verticalAlign=bottom;startArrow=none;startFill=0;endArrow=open;startSize=6;endSize=14;rounded=0;fontSize=14;entryX=0;entryY=0.038;entryDx=0;entryDy=0;entryPerimeter=0;exitX=1.1;exitY=0.025;exitDx=0;exitDy=0;exitPerimeter=0;" parent="1" source="8cxv18cPqp-0XhQ9Wepb-3" target="8cxv18cPqp-0XhQ9Wepb-8" edge="1">
          <mxGeometry x="0.0287" y="1" width="80" relative="1" as="geometry">
            <mxPoint x="88" y="170" as="sourcePoint" />
            <mxPoint x="253" y="170" as="targetPoint" />
            <mxPoint as="offset" />
          </mxGeometry>
        </mxCell>
        <mxCell id="8cxv18cPqp-0XhQ9Wepb-23" value="&lt;font style=&quot;font-size: 14px;&quot;&gt;Выбор блюд&lt;/font&gt;" style="html=1;verticalAlign=bottom;endArrow=open;dashed=1;endSize=8;rounded=0;exitX=0.114;exitY=0.886;exitDx=0;exitDy=0;exitPerimeter=0;entryX=0.971;entryY=0.863;entryDx=0;entryDy=0;entryPerimeter=0;" parent="1" source="8cxv18cPqp-0XhQ9Wepb-8" target="8cxv18cPqp-0XhQ9Wepb-3" edge="1">
          <mxGeometry x="0.0576" y="-11" relative="1" as="geometry">
            <mxPoint x="240" y="220" as="sourcePoint" />
            <mxPoint x="160" y="220" as="targetPoint" />
            <mxPoint as="offset" />
          </mxGeometry>
        </mxCell>
        <mxCell id="8cxv18cPqp-0XhQ9Wepb-24" value="Оплата заказа" style="html=1;verticalAlign=bottom;endArrow=block;rounded=0;fontSize=14;exitX=1;exitY=0.01;exitDx=0;exitDy=0;exitPerimeter=0;entryX=0.4;entryY=0;entryDx=0;entryDy=0;entryPerimeter=0;" parent="1" source="8cxv18cPqp-0XhQ9Wepb-4" target="8cxv18cPqp-0XhQ9Wepb-11" edge="1">
          <mxGeometry x="-0.0718" y="1" width="80" relative="1" as="geometry">
            <mxPoint x="110" y="360" as="sourcePoint" />
            <mxPoint x="190" y="360" as="targetPoint" />
            <mxPoint as="offset" />
          </mxGeometry>
        </mxCell>
        <mxCell id="8cxv18cPqp-0XhQ9Wepb-25" value="Выдача чека на заказ" style="html=1;verticalAlign=bottom;endArrow=open;dashed=1;endSize=8;rounded=0;fontSize=14;exitX=0.1;exitY=0.744;exitDx=0;exitDy=0;exitPerimeter=0;entryX=1.1;entryY=0.67;entryDx=0;entryDy=0;entryPerimeter=0;" parent="1" source="8cxv18cPqp-0XhQ9Wepb-11" target="8cxv18cPqp-0XhQ9Wepb-4" edge="1">
          <mxGeometry relative="1" as="geometry">
            <mxPoint x="410" y="390" as="sourcePoint" />
            <mxPoint x="330" y="390" as="targetPoint" />
          </mxGeometry>
        </mxCell>
        <mxCell id="8cxv18cPqp-0XhQ9Wepb-26" value="Терминал заказов" style="shape=umlLifeline;perimeter=lifelinePerimeter;whiteSpace=wrap;html=1;container=1;collapsible=0;recursiveResize=0;outlineConnect=0;fontSize=14;size=50;" parent="1" vertex="1">
          <mxGeometry x="630" y="90" width="100" height="660" as="geometry" />
        </mxCell>
        <mxCell id="8cxv18cPqp-0XhQ9Wepb-27" value="" style="html=1;points=[];perimeter=orthogonalPerimeter;fontSize=14;" parent="8cxv18cPqp-0XhQ9Wepb-26" vertex="1">
          <mxGeometry x="45" y="300" width="10" height="90" as="geometry" />
        </mxCell>
        <mxCell id="8cxv18cPqp-0XhQ9Wepb-28" value="" style="html=1;points=[];perimeter=orthogonalPerimeter;fontSize=14;" parent="8cxv18cPqp-0XhQ9Wepb-26" vertex="1">
          <mxGeometry x="45" y="470" width="10" height="160" as="geometry" />
        </mxCell>
        <mxCell id="8cxv18cPqp-0XhQ9Wepb-29" value="Ввод данных о заказах" style="html=1;verticalAlign=bottom;endArrow=block;rounded=0;fontSize=14;exitX=1.571;exitY=0.693;exitDx=0;exitDy=0;exitPerimeter=0;entryX=0.5;entryY=0.137;entryDx=0;entryDy=0;entryPerimeter=0;" parent="1" source="8cxv18cPqp-0XhQ9Wepb-11" target="8cxv18cPqp-0XhQ9Wepb-27" edge="1">
          <mxGeometry width="80" relative="1" as="geometry">
            <mxPoint x="460" y="340" as="sourcePoint" />
            <mxPoint x="600" y="382" as="targetPoint" />
          </mxGeometry>
        </mxCell>
        <mxCell id="8cxv18cPqp-0XhQ9Wepb-30" value="Подтверждение ввода" style="html=1;verticalAlign=bottom;endArrow=open;dashed=1;endSize=8;rounded=0;fontSize=14;exitX=-0.315;exitY=0.405;exitDx=0;exitDy=0;exitPerimeter=0;entryX=1.152;entryY=0.941;entryDx=0;entryDy=0;entryPerimeter=0;" parent="1" source="8cxv18cPqp-0XhQ9Wepb-27" target="8cxv18cPqp-0XhQ9Wepb-11" edge="1">
          <mxGeometry relative="1" as="geometry">
            <mxPoint x="600" y="370" as="sourcePoint" />
            <mxPoint x="520" y="370" as="targetPoint" />
          </mxGeometry>
        </mxCell>
        <mxCell id="8cxv18cPqp-0XhQ9Wepb-31" value="Предоставление &lt;br&gt;информации о заказах" style="html=1;verticalAlign=bottom;endArrow=block;rounded=0;fontSize=14;entryX=-0.135;entryY=0.33;entryDx=0;entryDy=0;entryPerimeter=0;exitX=1.274;exitY=0.945;exitDx=0;exitDy=0;exitPerimeter=0;" parent="1" source="8cxv18cPqp-0XhQ9Wepb-27" target="8cxv18cPqp-0XhQ9Wepb-13" edge="1">
          <mxGeometry width="80" relative="1" as="geometry">
            <mxPoint x="620" y="440" as="sourcePoint" />
            <mxPoint x="730" y="334" as="targetPoint" />
          </mxGeometry>
        </mxCell>
        <mxCell id="8cxv18cPqp-0XhQ9Wepb-32" value="Предоставление информации о заказах" style="html=1;verticalAlign=bottom;endArrow=block;rounded=0;fontSize=14;exitX=1.274;exitY=0.352;exitDx=0;exitDy=0;exitPerimeter=0;entryX=-0.203;entryY=0.05;entryDx=0;entryDy=0;entryPerimeter=0;" parent="1" source="8cxv18cPqp-0XhQ9Wepb-27" target="8cxv18cPqp-0XhQ9Wepb-17" edge="1">
          <mxGeometry width="80" relative="1" as="geometry">
            <mxPoint x="360" y="800" as="sourcePoint" />
            <mxPoint x="720" y="790" as="targetPoint" />
          </mxGeometry>
        </mxCell>
        <mxCell id="8cxv18cPqp-0XhQ9Wepb-33" value="Передача информации о готовности заказов" style="html=1;verticalAlign=bottom;endArrow=block;rounded=0;fontSize=14;exitX=0.939;exitY=0.606;exitDx=0;exitDy=0;exitPerimeter=0;entryX=-0.1;entryY=0.15;entryDx=0;entryDy=0;entryPerimeter=0;" parent="1" source="8cxv18cPqp-0XhQ9Wepb-28" target="8cxv18cPqp-0XhQ9Wepb-21" edge="1">
          <mxGeometry width="80" relative="1" as="geometry">
            <mxPoint x="605" y="492.0200000000002" as="sourcePoint" />
            <mxPoint x="1380" y="660" as="targetPoint" />
          </mxGeometry>
        </mxCell>
        <mxCell id="8cxv18cPqp-0XhQ9Wepb-34" value="Приготовление напитков" style="text;html=1;strokeColor=none;fillColor=none;align=center;verticalAlign=middle;whiteSpace=wrap;rounded=0;fontSize=14;rotation=90;" parent="1" vertex="1">
          <mxGeometry x="1000" y="480" width="120" height="30" as="geometry" />
        </mxCell>
        <mxCell id="8cxv18cPqp-0XhQ9Wepb-35" value="Приготовление блюд" style="text;html=1;strokeColor=none;fillColor=none;align=center;verticalAlign=middle;whiteSpace=wrap;rounded=0;fontSize=14;rotation=90;" parent="1" vertex="1">
          <mxGeometry x="1210" y="480" width="120" height="30" as="geometry" />
        </mxCell>
        <mxCell id="8cxv18cPqp-0XhQ9Wepb-36" value="&lt;span style=&quot;font-size: 14px;&quot;&gt;Предоставление информации о готовых заказах&lt;/span&gt;" style="html=1;verticalAlign=bottom;endArrow=open;dashed=1;endSize=8;rounded=0;entryX=1.112;entryY=0.411;entryDx=0;entryDy=0;entryPerimeter=0;exitX=0.115;exitY=0.935;exitDx=0;exitDy=0;exitPerimeter=0;" parent="1" source="8cxv18cPqp-0XhQ9Wepb-17" target="8cxv18cPqp-0XhQ9Wepb-28" edge="1">
          <mxGeometry relative="1" as="geometry">
            <mxPoint x="950" y="570" as="sourcePoint" />
            <mxPoint x="820" y="580" as="targetPoint" />
          </mxGeometry>
        </mxCell>
        <mxCell id="8cxv18cPqp-0XhQ9Wepb-37" value="&lt;span style=&quot;font-size: 14px;&quot;&gt;Предоставление &lt;br&gt;информации&lt;br&gt;&amp;nbsp;о готовых заказах&lt;/span&gt;" style="html=1;verticalAlign=bottom;endArrow=open;dashed=1;endSize=8;rounded=0;exitX=0.156;exitY=0.984;exitDx=0;exitDy=0;exitPerimeter=0;entryX=0.939;entryY=0.043;entryDx=0;entryDy=0;entryPerimeter=0;" parent="1" source="8cxv18cPqp-0XhQ9Wepb-13" target="8cxv18cPqp-0XhQ9Wepb-28" edge="1">
          <mxGeometry x="-0.1229" y="-4" relative="1" as="geometry">
            <mxPoint x="766.1400000000001" y="534.685" as="sourcePoint" />
            <mxPoint x="690" y="564" as="targetPoint" />
            <mxPoint as="offset" />
          </mxGeometry>
        </mxCell>
        <mxCell id="8cxv18cPqp-0XhQ9Wepb-38" value="Предоставление информации о&lt;br&gt;&amp;nbsp;готовности заказов" style="html=1;verticalAlign=bottom;endArrow=block;rounded=0;fontSize=14;exitX=-0.2;exitY=0.921;exitDx=0;exitDy=0;exitPerimeter=0;" parent="1" source="8cxv18cPqp-0XhQ9Wepb-28" edge="1">
          <mxGeometry width="80" relative="1" as="geometry">
            <mxPoint x="95" y="650" as="sourcePoint" />
            <mxPoint x="90" y="707" as="targetPoint" />
          </mxGeometry>
        </mxCell>
        <mxCell id="8cxv18cPqp-0XhQ9Wepb-39" value="Выбор места в коффейне" style="html=1;verticalAlign=bottom;endArrow=block;rounded=0;fontSize=14;entryX=-0.094;entryY=0.187;entryDx=0;entryDy=0;entryPerimeter=0;exitX=1.376;exitY=0.17;exitDx=0;exitDy=0;exitPerimeter=0;" parent="1" source="8cxv18cPqp-0XhQ9Wepb-6" target="8cxv18cPqp-0XhQ9Wepb-9" edge="1">
          <mxGeometry width="80" relative="1" as="geometry">
            <mxPoint x="820" y="540" as="sourcePoint" />
            <mxPoint x="900" y="540" as="targetPoint" />
          </mxGeometry>
        </mxCell>
        <mxCell id="8cxv18cPqp-0XhQ9Wepb-40" value="подтверждение&amp;nbsp;" style="html=1;verticalAlign=bottom;endArrow=open;dashed=1;endSize=8;rounded=0;fontSize=14;exitX=0.024;exitY=0.724;exitDx=0;exitDy=0;exitPerimeter=0;entryX=1.376;entryY=0.724;entryDx=0;entryDy=0;entryPerimeter=0;" parent="1" source="8cxv18cPqp-0XhQ9Wepb-9" target="8cxv18cPqp-0XhQ9Wepb-6" edge="1">
          <mxGeometry relative="1" as="geometry">
            <mxPoint x="900" y="540" as="sourcePoint" />
            <mxPoint x="820" y="540" as="targetPoint" />
          </mxGeometry>
        </mxCell>
        <mxCell id="Dcsr8LWb-YgGQi1d1twZ-3" value="&lt;span style=&quot;font-size: 14px;&quot;&gt;Обновление статуса заказа&amp;nbsp;&lt;/span&gt;" style="html=1;verticalAlign=bottom;endArrow=open;dashed=1;endSize=8;rounded=0;entryX=1.4;entryY=0.836;entryDx=0;entryDy=0;entryPerimeter=0;exitX=-0.074;exitY=0.78;exitDx=0;exitDy=0;exitPerimeter=0;" edge="1" parent="1" source="8cxv18cPqp-0XhQ9Wepb-21" target="8cxv18cPqp-0XhQ9Wepb-28">
          <mxGeometry x="0.0014" relative="1" as="geometry">
            <mxPoint x="1410" y="694" as="sourcePoint" />
            <mxPoint x="421" y="765" as="targetPoint" />
            <mxPoint as="offset" />
          </mxGeometry>
        </mxCell>
        <mxCell id="Dcsr8LWb-YgGQi1d1twZ-4" value="&lt;font style=&quot;font-size: 36px;&quot;&gt;X&lt;/font&gt;" style="text;html=1;align=center;verticalAlign=middle;resizable=0;points=[];autosize=1;strokeColor=none;fillColor=none;rotation=0;" vertex="1" parent="1">
          <mxGeometry x="55" y="730" width="50" height="60" as="geometry" />
        </mxCell>
      </root>
    </mxGraphModel>
  </diagram>
</mxfile>
